<svg width="171" height="61" viewBox="0 0 171 61" fill="none" xmlns="http://www.w3.org/2000/svg">
<path d="M29.0421 4.29686C30.2287 4.29686 31.1906 3.33497 31.1906 2.14843C31.1906 0.961884 30.2287 0 29.0421 0C27.8556 0 26.8937 0.961884 26.8937 2.14843C26.8937 3.33497 27.8556 4.29686 29.0421 4.29686Z" fill="#33AD43"/>
<path d="M75.2333 36.9069H69.9006L77.1132 0L89.0447 26.6635L101.091 0L107.575 36.9069H102.242L98.7509 16.2283L88.7761 37.2522L78.878 16.1899L75.2333 36.9069Z" fill="black"/>
<path d="M110.337 0.345283H116.015L125.069 23.3258L134.315 0L143.254 23.3258L152.615 0.383648H158.293L142.947 36.9069L134.008 12.5836L124.954 36.9069L110.337 0.345283Z" fill="black"/>
<path d="M165.16 0H170.416V36.9069H165.16V0Z" fill="black"/>
<path fill-rule="evenodd" clip-rule="evenodd" d="M74.1975 57.6621C75.4635 57.6621 76.3075 57.0867 76.5761 56.6265V57.5471H77.8038V46.7666H76.5761V50.4497C76.1157 49.9893 75.3868 49.6824 74.2742 49.6824C72.1642 49.6824 70.3994 51.332 70.3994 53.7107C70.3994 56.166 71.9723 57.6621 74.1975 57.6621ZM76.5761 51.9075V55.0149C76.2692 55.6289 75.5019 56.4729 74.3509 56.4729C72.8163 56.4729 71.7038 55.437 71.7038 53.6724C71.7038 51.9458 72.9698 50.8333 74.4277 50.8333C75.4252 50.8333 76.1157 51.2168 76.5761 51.9075Z" fill="#C9C9C9"/>
<path fill-rule="evenodd" clip-rule="evenodd" d="M81.5635 47.3423C81.5635 46.9202 81.2182 46.6133 80.7962 46.6133C80.3358 46.6133 79.9906 46.9202 79.9906 47.3423C79.9906 47.8025 80.3358 48.1096 80.7962 48.1096C81.2182 48.1096 81.5635 47.8025 81.5635 47.3423ZM81.3717 49.8359H80.144V57.5474H81.3717V49.8359Z" fill="#C9C9C9"/>
<path fill-rule="evenodd" clip-rule="evenodd" d="M87.2415 60.6165C89.1981 60.6165 90.6944 59.5422 90.6944 56.9333V49.7976H89.4283V50.488C89.083 50.0662 88.2774 49.644 87.1264 49.644C85.0164 49.644 83.2899 51.1404 83.2899 53.634C83.2899 56.1277 84.8245 57.624 87.1264 57.624C88.4308 57.624 88.9679 57.2402 89.4667 56.6648V57.1252C89.4667 58.5447 88.6994 59.3887 87.2032 59.3887C85.9755 59.3887 85.2466 58.8132 84.9396 58.2378L83.8271 58.7366C84.2491 59.8875 85.5535 60.6165 87.2415 60.6165ZM89.4667 51.9458V55.0535C89.1981 55.7822 88.4308 56.5112 87.3182 56.4729C85.6686 56.4729 84.5943 55.437 84.5943 53.6724C84.5943 51.8308 85.8604 50.8333 87.3182 50.8333C88.3541 50.8333 89.1214 51.332 89.4667 51.9458Z" fill="#C9C9C9"/>
<path fill-rule="evenodd" clip-rule="evenodd" d="M94.4541 47.3423C94.4541 46.9202 94.1088 46.6133 93.6868 46.6133C93.2264 46.6133 92.8811 46.9202 92.8811 47.3423C92.8811 47.8025 93.2264 48.1096 93.6868 48.1096C94.1088 48.1096 94.4541 47.8025 94.4541 47.3423ZM94.2623 49.8359H93.0346V57.5474H94.2623V49.8359Z" fill="#C9C9C9"/>
<path d="M95.7969 49.8358H97.4082V47.8792H98.6359V49.8358H101.283V51.0251H98.6359V54.4012C98.6359 55.9358 99.0579 56.4345 99.9786 56.4345C100.516 56.4345 100.938 56.2043 101.36 55.8974L101.935 56.8181C101.475 57.3169 100.708 57.6238 99.7484 57.6238C98.2522 57.6238 97.4082 56.6263 97.4082 54.7081V51.0251H95.7969V49.8358H95.7969Z" fill="#C9C9C9"/>
<path fill-rule="evenodd" clip-rule="evenodd" d="M106.232 49.644C105.12 49.644 103.892 50.1045 103.163 50.7566L103.777 51.6775C104.506 51.1404 105.196 50.8333 106.079 50.8333C107.69 50.8333 108.15 51.7542 108.15 53.1353C107.767 53.0203 106.923 52.905 106.347 52.905C104.122 52.905 102.664 53.5957 102.664 55.2837C102.664 56.7031 103.777 57.624 105.465 57.624C106.808 57.624 107.69 57.0483 108.15 56.3962V57.5471H109.378V52.7517C109.378 50.7949 108.304 49.644 106.232 49.644ZM108.15 54.2478V55.0151C107.882 55.6289 107.038 56.5112 105.733 56.5112C104.697 56.5112 103.969 56.051 103.969 55.2454C103.969 54.3245 104.928 54.0176 106.501 54.0176C107.114 54.0176 107.767 54.1326 108.15 54.2478Z" fill="#C9C9C9"/>
<path d="M111.603 46.7283H112.831V57.5471H111.603V46.7283Z" fill="#C9C9C9"/>
<path fill-rule="evenodd" clip-rule="evenodd" d="M122.959 49.644C121.847 49.644 120.619 50.1045 119.89 50.7566L120.504 51.6775C121.233 51.1404 121.923 50.8333 122.806 50.8333C124.417 50.8333 124.877 51.7542 124.877 53.1353C124.494 53.0203 123.65 52.905 123.074 52.905C120.849 52.905 119.391 53.5957 119.391 55.2837C119.391 56.7031 120.504 57.624 122.192 57.624C123.535 57.624 124.417 57.0483 124.877 56.3962V57.5471H126.105V52.7517C126.105 50.7949 125.031 49.644 122.959 49.644ZM124.877 54.2478V55.0151C124.609 55.6289 123.765 56.5112 122.46 56.5112C121.425 56.5112 120.696 56.051 120.696 55.2454C120.696 54.3245 121.655 54.0176 123.228 54.0176C123.842 54.0176 124.494 54.1326 124.877 54.2478Z" fill="#C9C9C9"/>
<path fill-rule="evenodd" clip-rule="evenodd" d="M131.745 60.6165C133.701 60.6165 135.197 59.5422 135.197 56.9333V49.7976H133.931V50.488C133.586 50.0662 132.781 49.644 131.63 49.644C129.52 49.644 127.793 51.1404 127.793 53.634C127.793 56.1277 129.328 57.624 131.63 57.624C132.934 57.624 133.471 57.2402 133.97 56.6648V57.1252C133.97 58.5447 133.203 59.3887 131.706 59.3887C130.479 59.3887 129.75 58.8132 129.443 58.2378L128.33 58.7366C128.752 59.8875 130.057 60.6165 131.745 60.6165ZM133.931 51.9458V55.0535C133.701 55.7822 132.934 56.5112 131.783 56.4729C130.133 56.4729 129.059 55.437 129.059 53.6724C129.059 51.8308 130.325 50.8333 131.783 50.8333C132.819 50.8333 133.586 51.332 133.931 51.9458Z" fill="#C9C9C9"/>
<path fill-rule="evenodd" clip-rule="evenodd" d="M141.029 57.7007C142.295 57.7007 143.369 57.1636 144.098 56.0894L143.292 55.3604C142.832 56.0125 141.988 56.5112 141.067 56.5112C139.494 56.5112 138.343 55.6672 138.267 54.0942H144.328C144.405 53.749 144.405 53.4421 144.405 53.1736C144.405 51.0251 142.87 49.6824 140.837 49.6824C138.267 49.6824 136.924 51.4473 136.924 53.7107C136.924 56.1277 138.574 57.7007 141.029 57.7007ZM143.101 52.9819H138.228C138.42 51.7158 139.341 50.7952 140.76 50.8335C142.142 50.8335 143.024 51.6008 143.101 52.9819Z" fill="#C9C9C9"/>
<path d="M146.131 49.8358H147.359V50.8333C147.858 50.066 148.894 49.6824 150.006 49.6824C152.001 49.6824 153.114 50.7182 153.114 53.1736V57.5472H151.886V53.327C151.886 51.639 151.157 50.8717 149.623 50.8717C148.664 50.8717 147.781 51.4855 147.359 52.4446V57.5472H146.131V49.8358H146.131Z" fill="#C9C9C9"/>
<path d="M162.091 55.9359C161.516 57.0484 160.135 57.6623 158.907 57.6623C156.452 57.6623 154.802 56.0893 154.802 53.6723C154.802 51.4088 156.413 49.644 158.83 49.644C160.211 49.644 161.439 50.2579 161.938 51.217L160.979 51.8692C160.442 51.1403 159.789 50.8334 158.83 50.8334C157.257 50.8334 156.068 52.0227 156.068 53.6723C156.068 55.3604 157.219 56.5113 158.984 56.5113C159.904 56.5113 160.672 56.051 161.132 55.322L162.091 55.9359Z" fill="#C9C9C9"/>
<path d="M164.048 59.3887C164.163 59.4271 164.24 59.4655 164.355 59.4655C164.93 59.4655 165.314 59.0818 165.851 57.8541L166.081 57.2787L162.36 49.8743H163.818L166.695 55.7057L168.882 49.8743H170.225L167.309 57.4705C166.273 60.0793 165.467 60.6931 164.393 60.6931C164.086 60.6931 163.779 60.6164 163.549 60.5013L164.048 59.3887Z" fill="#C9C9C9"/>
<path d="M47.8025 36.8686H56.2044L58.1226 33.6459H45.5774L40.0912 48.9151L36.6 42.6233L30.6535 53.4805V7.02075H27.4308V60.2327H30.6535L36.6 48.8767L40.283 56.588L41.1654 54.2478L41.9327 52.2528" fill="black"/>
<path d="M10.3201 30.3849H1.87987L0 33.6075H12.5453L18.0314 18.3L21.4843 24.6302L27.4308 13.773V60.2327H30.6918V7.02075H27.4308L21.5226 18.3767L17.8396 10.6654L16.9572 13.0057H16.9189L16.1899 14.9623V15.0006" fill="black"/>
</svg>
