<svg xmlns="http://www.w3.org/2000/svg" viewBox="0 0 1414.5 1414.47"><defs><style>.cls-1{fill:#231f20;}</style></defs><title>Ресурс 1</title><g id="Слой_2" data-name="Слой 2"><g id="Layer_1" data-name="Layer 1"><path class="cls-1" d="M1286.46,301.69C1178.13,147,1016,43.69,830,10.92s-373.62,8.8-528.33,117.13S43.74,398.47,10.93,584.46s8.8,373.63,117.13,528.33,270.42,258,456.41,290.77,373.63-8.8,528.34-117.13S1370.81,1016,1403.58,830,1394.78,456.39,1286.46,301.69ZM1055.3,1006q-5.13,27.3-51.57,59.81c-46.44,32.51-19.19,12.35-19.68,12.58q-76.2,36.93-164,49.14a995.82,995.82,0,0,1-160-126.79Q585.61,928.35,522.29,838q-64.62-92.31-107.42-187.33a976.38,976.38,0,0,1-64.24-193.38q37.22-74.55,105-139.78c.37-.32,21.05-15.37,21.05-15.37Q518.26,273,545.2,278.27t57.07,48.33q83.81,119.64-13.21,187.64l-30,21q-67.12,47,60.34,229.1Q751.28,952.67,818.48,905.61l24.76-17.34Q946.5,816,1029,933.84,1060.45,978.72,1055.3,1006Z"/></g></g></svg>