<?xml version="1.0" encoding="utf-8"?>
<!-- Generator: Adobe Illustrator 16.0.0, SVG Export Plug-In . SVG Version: 6.00 Build 0)  -->
<!DOCTYPE svg PUBLIC "-//W3C//DTD SVG 1.1//EN" "http://www.w3.org/Graphics/SVG/1.1/DTD/svg11.dtd">
<svg version="1.1" id="Layer_1" xmlns="http://www.w3.org/2000/svg" xmlns:xlink="http://www.w3.org/1999/xlink" x="0px" y="0px"
	 width="255.121px" height="255.121px" viewBox="0 0 255.121 255.121" enable-background="new 0 0 255.121 255.121"
	 xml:space="preserve">
<g id="Layer_18">
	<g>
		<path fill="#313131" d="M128.504,61.245c-35.545,0-64.449,28.902-64.462,64.429c-0.005,12.174,3.402,24.029,9.851,34.289
			l1.531,2.438l-6.508,23.777l24.385-6.398l2.354,1.398c9.892,5.871,21.232,8.975,32.798,8.98h0.024
			c35.515,0,64.42-28.904,64.437-64.433c0.008-17.218-6.689-33.406-18.855-45.584C161.892,67.96,145.713,61.25,128.504,61.245z
			 M166.405,153.375c-1.612,4.523-9.354,8.654-13.073,9.209c-3.336,0.499-7.562,0.706-12.199-0.77
			c-2.812-0.893-6.42-2.084-11.043-4.078c-19.437-8.391-32.127-27.954-33.094-29.245c-0.968-1.293-7.91-10.502-7.91-20.037
			c0-9.535,5.002-14.22,6.779-16.16c1.774-1.94,3.875-2.424,5.166-2.424s2.584,0.013,3.713,0.067
			c1.189,0.059,2.785-0.45,4.358,3.324c1.614,3.88,5.489,13.413,5.974,14.383c0.483,0.97,0.807,2.1,0.16,3.394
			c-0.646,1.291-0.968,2.101-1.938,3.231c-0.971,1.13-2.033,2.525-2.905,3.394c-0.97,0.965-1.979,2.015-0.849,3.953
			c1.131,1.94,5.019,8.282,10.776,13.416c7.399,6.599,13.642,8.646,15.579,9.614c1.938,0.971,3.068,0.808,4.195-0.483
			c1.131-1.293,4.844-5.657,6.134-7.595c1.291-1.938,2.581-1.616,4.358-0.971c1.774,0.646,11.3,5.332,13.236,6.301
			c1.938,0.972,3.229,1.455,3.713,2.265C168.02,144.969,168.02,148.85,166.405,153.375z"/>
		<path fill="#313131" d="M127.561,0C57.111,0,0,57.111,0,127.56c0,70.449,57.111,127.561,127.56,127.561
			S255.121,198.01,255.121,127.56C255.121,57.111,198.01,0,127.561,0z M128.478,203.25C128.476,203.25,128.48,203.25,128.478,203.25
			h-0.031c-12.976-0.006-25.724-3.26-37.046-9.438l-41.096,10.783l10.999-40.175c-6.785-11.757-10.355-25.094-10.347-38.754
			c0.013-42.744,34.792-77.518,77.522-77.518c20.738,0.007,40.205,8.081,54.84,22.735c14.637,14.651,22.695,34.13,22.684,54.845
			C205.983,168.473,171.205,203.25,128.478,203.25z"/>
	</g>
</g>
<g id="Layer_1_1_">
</g>
</svg>
