<?xml version="1.0" encoding="utf-8"?>
<!-- Generator: Adobe Illustrator 16.0.0, SVG Export Plug-In . SVG Version: 6.00 Build 0)  -->
<!DOCTYPE svg PUBLIC "-//W3C//DTD SVG 1.1 Tiny//EN" "http://www.w3.org/Graphics/SVG/1.1/DTD/svg11-tiny.dtd">
<svg version="1.1" baseProfile="tiny" id="Слой_1"
	 xmlns="http://www.w3.org/2000/svg" xmlns:xlink="http://www.w3.org/1999/xlink" x="0px" y="0px" width="1000px" height="1000px"
	 viewBox="0 0 1000 1000" xml:space="preserve">
<g>
	<g>
		<path d="M843.48,154.116C751.983,62.505,630.293,12.035,500.648,11.986c-267.118,0-484.542,217.392-484.639,484.607
			c-0.032,85.417,22.284,168.796,64.686,242.28L11.934,990.014l256.915-67.387c70.781,38.618,150.491,58.962,231.59,58.993h0.194
			c267.103,0,484.527-217.424,484.64-484.623C985.352,367.481,934.995,245.727,843.48,154.116z M500.664,899.761h-0.161
			c-72.286-0.031-143.181-19.453-205.021-56.146l-14.716-8.732l-152.464,39.992l40.688-148.647l-9.574-15.25
			c-40.315-64.135-61.613-138.248-61.581-214.367c0.081-222.097,180.796-402.78,402.974-402.78
			c107.588,0.033,208.724,41.997,284.778,118.132c76.053,76.134,117.905,177.335,117.873,284.972
			C903.379,719.063,722.681,899.761,500.664,899.761z"/>
		<path d="M721.613,598.068c-12.111-6.064-71.639-35.351-82.749-39.394c-11.093-4.043-19.179-6.063-27.249,6.065
			c-8.068,12.128-31.273,39.393-38.342,47.478c-7.065,8.086-14.134,9.089-26.229,3.025c-12.113-6.065-51.135-18.841-97.385-60.109
			c-35.997-32.116-60.303-71.769-67.369-83.881c-7.067-12.128-0.76-18.677,5.304-24.709c5.45-5.434,12.112-14.15,18.16-21.217
			c6.049-7.067,8.07-12.129,12.113-20.198c4.043-8.086,2.021-15.153-1.003-21.217c-3.024-6.065-27.248-65.672-37.34-89.914
			c-9.832-23.61-19.81-20.408-27.248-20.78c-7.051-0.355-15.137-0.42-23.207-0.42c-8.069,0-21.184,3.024-32.294,15.153
			c-11.093,12.128-42.385,41.415-42.385,101.022c0,59.608,43.388,117.194,49.452,125.264c6.048,8.086,85.384,130.39,206.864,182.85
			c28.897,12.484,51.441,19.923,69.034,25.502c29.013,9.218,55.404,7.924,76.28,4.803c23.272-3.477,71.641-29.285,81.73-57.57
			c10.092-28.283,10.092-52.54,7.068-57.586C741.796,607.173,733.726,604.133,721.613,598.068z"/>
	</g>
</g>
</svg>
